<svg width="25" height="25" viewBox="0 0 25 25" fill="none" xmlns="http://www.w3.org/2000/svg">
<g clip-path="url(#clip0_1_1709)">
<path d="M5.48814 9.32211C5.22354 9.32211 5.00879 9.53686 5.00879 9.80146C5.00879 10.0661 5.22354 10.2808 5.48814 10.2808C5.75274 10.2808 5.96748 10.0661 5.96748 9.80146C5.96748 9.53686 5.75274 9.32211 5.48814 9.32211Z" fill="#0B6FC0"/>
<path d="M16.9914 10.2804H14.5946V7.88364C14.5946 7.61895 14.38 7.4043 14.1153 7.4043H11.2392C10.9745 7.4043 10.7599 7.61895 10.7599 7.88364V10.2804H8.36314C8.09844 10.2804 7.88379 10.495 7.88379 10.7597V13.6358C7.88379 13.9005 8.09844 14.1151 8.36314 14.1151H10.7599V16.5119C10.7599 16.7766 10.9745 16.9912 11.2392 16.9912H14.1153C14.38 16.9912 14.5946 16.7766 14.5946 16.5119V14.1151H16.9914C17.2561 14.1151 17.4707 13.9005 17.4707 13.6358V10.7597C17.4707 10.495 17.2561 10.2804 16.9914 10.2804ZM16.512 13.1565H14.1153C13.8506 13.1565 13.6359 13.3711 13.6359 13.6358V16.0325H11.7186V13.6358C11.7186 13.3711 11.5039 13.1565 11.2392 13.1565H8.84248V11.2391H11.2392C11.5039 11.2391 11.7186 11.0244 11.7186 10.7597V8.36299H13.6359V10.7597C13.6359 11.0244 13.8506 11.2391 14.1153 11.2391H16.512V13.1565Z" fill="#0B6FC0"/>
<path d="M20.0786 1.87993C19.3026 2.38382 18.4013 2.6501 17.4722 2.6501C16.0513 2.6501 14.712 2.02489 13.7976 0.934708C13.7976 0.934708 13.7976 0.934708 13.7976 0.934708C13.516 0.598973 13.1081 0.406372 12.6787 0.406372C12.2493 0.406372 11.8415 0.598973 11.5598 0.93466C10.6455 2.02484 9.30609 2.65005 7.88526 2.65005C6.95619 2.65005 6.05488 2.38372 5.27881 1.87988C4.331 1.26474 3.0918 1.98898 3.0918 3.10543V12.8827C3.0918 15.0575 3.78944 17.1824 5.05606 18.8659C8.18955 23.0323 12.3156 24.8352 12.4897 24.9099C12.5501 24.9358 12.6144 24.9488 12.6787 24.9488C12.743 24.9488 12.8074 24.9358 12.8677 24.9099C13.0418 24.8352 17.1679 23.0324 20.3013 18.8664C21.5681 17.1824 22.2657 15.0574 22.2657 12.8827V3.10548C22.2657 1.98893 21.0262 1.26474 20.0786 1.87993ZM19.5352 18.2902C16.9294 21.7546 13.5115 23.5406 12.6784 23.9413C11.845 23.5416 8.43378 21.7622 5.8222 18.2896C4.67968 16.7712 4.05049 14.851 4.05049 12.8828V3.10548C4.05049 2.74055 4.45319 2.48702 4.75676 2.68403C5.68866 3.28902 6.77049 3.60879 7.88526 3.60879C9.5903 3.60879 11.1974 2.85871 12.2943 1.55081C12.3948 1.43102 12.5313 1.36506 12.6787 1.36506C12.8262 1.36506 12.9626 1.43102 13.0631 1.55081C14.1601 2.85866 15.7672 3.60879 17.4722 3.60879C18.587 3.60879 19.6687 3.28902 20.6007 2.68403C20.8993 2.49004 21.307 2.73504 21.307 3.10548V12.8827C21.307 14.8509 20.6778 16.7712 19.5352 18.2902Z" fill="#0B6FC0"/>
<path d="M20.1451 4.24246C20.0178 4.15264 19.855 4.1302 19.7082 4.18221C18.9871 4.43809 18.2346 4.5678 17.4718 4.5678C15.8241 4.5678 14.2352 3.95955 12.9975 2.85509C12.8157 2.69283 12.541 2.69283 12.3592 2.85509C11.1216 3.95955 9.53252 4.5678 7.88487 4.5678C7.12208 4.5678 6.36961 4.43809 5.64843 4.18221C5.50156 4.1302 5.33882 4.15264 5.2116 4.24246C5.08448 4.33229 5.00884 4.4783 5.00884 4.63399V7.88444C5.00884 8.14914 5.22349 8.36379 5.48818 8.36379C5.75288 8.36379 5.96753 8.14914 5.96753 7.88444V5.28193C6.59346 5.44443 7.23588 5.52654 7.88492 5.52654C9.6295 5.52654 11.3158 4.93057 12.6784 3.84015C14.0409 4.93057 15.7273 5.52654 17.4718 5.52654C18.1209 5.52654 18.7633 5.44443 19.3892 5.28193V12.8831C19.3892 14.4386 18.8968 15.9492 18.0023 17.1368C16.1897 19.5477 13.9759 21.0405 12.6829 21.7755C11.3796 21.0309 9.15159 19.5268 7.35428 17.1376C6.46001 15.9492 5.96748 14.4383 5.96748 12.883V11.7192C5.96748 11.4545 5.75283 11.2398 5.48814 11.2398C5.22344 11.2398 5.00879 11.4545 5.00879 11.7192V12.883C5.00879 14.6449 5.56972 16.3606 6.58819 17.7139C8.60389 20.3936 11.1267 22.0161 12.4511 22.7447C12.523 22.7843 12.6025 22.804 12.6821 22.804C12.7612 22.804 12.8404 22.7845 12.912 22.7453C14.2262 22.0271 16.7346 20.4182 18.7683 17.7132C19.7868 16.3607 20.3478 14.6453 20.3478 12.883V4.63395C20.3478 4.47826 20.2722 4.33229 20.1451 4.24246Z" fill="#0B6FC0"/>
</g>
<defs>
<clipPath id="clip0_1_1709">
<rect width="24.5424" height="24.5424" fill="white" transform="translate(0.407227 0.40625)"/>
</clipPath>
</defs>
</svg>
